<svg xmlns="http://www.w3.org/2000/svg" xml:space="preserve" viewBox="0 0 512 408"><path fill="#E6E6E6" d="M56.5 53.3C55.5 25.6 77.1 0 106.3 0h299.4c29.2 0 50.8 25.6 49.9 53.3-.9 26.6.3 61.2 9 89.3 8.7 28.2 23.4 46.1 47.5 48.4v26c-24.1 2.3-38.8 20.1-47.5 48.4-8.7 28.1-9.9 62.7-9 89.3 1 27.7-20.6 53.3-49.9 53.3H106.3c-29.2 0-50.8-25.6-49.9-53.3.9-26.6-.3-61.2-9-89.3C38.8 237.1 24.1 219.3 0 217v-26c24.1-2.3 38.8-20.1 47.5-48.4 8.7-28.1 9.9-62.6 9-89.3z"/><path fill="#1A1A1A" d="M267.1 312.5c47.3 0 75.8-23.2 75.8-61.4 0-28.9-20.3-49.8-50.5-53.1v-1.2c22.2-3.6 39.6-24.2 39.6-47.2 0-32.8-25.9-54.1-65.3-54.1H178v217h89.1zM212.4 123h45.9c25 0 39.1 11.1 39.1 31.3 0 21.5-16.5 33.5-46.4 33.5h-38.7c.1 0 .1-64.8.1-64.8zm0 161.9v-71.4H258c32.7 0 49.6 12 49.6 35.5s-16.5 35.9-47.6 35.9h-47.6z"/></svg>