<svg xmlns="http://www.w3.org/2000/svg" xml:space="preserve" viewBox="0 0 306 344.4"><path fill="#CCC" d="M302.1 258.3c2.4-4.2 3.9-8.8 3.9-13.1V99.1c0-4.2-1.5-8.9-3.9-13.1L153 172.2l149.1 86.1z"/><path fill="#B3B3B3" d="m166.3 341.2 126.5-73c3.6-2.1 7-5.7 9.4-9.9L153 172.2 3.9 258.3c2.4 4.2 5.7 7.8 9.4 9.9l126.5 73c7.2 4.2 19.2 4.2 26.5 0z"/><path fill="#E6E6E6" d="M302.1 86.1c-2.4-4.2-5.7-7.8-9.4-9.9l-126.5-73C158.9-1 147-1 139.7 3.2l-126.5 73C6 80.4 0 90.7 0 99.1v146.1c0 4.2 1.5 8.9 3.9 13.1L153 172.2l149.1-86.1z"/><path fill="#1A1A1A" d="M153 274.2c-56.2 0-102-45.8-102-102s45.8-102 102-102c36.3 0 70.1 19.5 88.3 51l-44.1 25.5c-9.1-15.7-26-25.5-44.2-25.5-28.1 0-51 22.9-51 51s22.9 51 51 51c18.2 0 35.1-9.8 44.2-25.5l44.1 25.5c-18.2 31.4-52 51-88.3 51z"/><path fill="#1A1A1A" d="M255 166.5h-11.3v-11.3h-11.4v11.3H221v11.3h11.3v11.4h11.4v-11.4H255zM297.5 166.5h-11.3v-11.3h-11.4v11.3h-11.3v11.3h11.3v11.4h11.4v-11.4h11.3z"/></svg>