<svg xmlns="http://www.w3.org/2000/svg" xml:space="preserve" viewBox="0 0 290.2 409.6"><path fill="#CCC" d="m290.167 80.5-26.4 296.2-118.9 32.9-118.5-32.9-26.4-296.2z"/><path fill="#E6E6E6" d="m241.167 357.8 22.5-253.1h-118.6v279.7z"/><path fill="#1A1A1A" d="m60.567 214.6 3.2 36.3h81.3v-36.3zM145.067 141h-91.1l3.3 36.4h87.8zM145.067 346.7v-37.8l-.1.1-40.5-11-2.6-28.9H65.467l5 57 74.5 20.7z"/><path fill="#E6E6E6" d="M68.267 0h44v18.4h-25.6v18.4h25.6v18.4h-44V0zM121.067 0h44v16h-25.6v3.2h25.6V56h-44V39.2h25.6V36h-25.6V0zM173.867 0h44v16h-25.6v3.2h25.6V56h-44V39.2h25.6V36h-25.6V0z"/><path fill="#1A1A1A" d="m189.667 250.9-4.2 47.1-40.5 11v37.7l74.5-20.6.5-6.1 8.6-95.7.8-9.7 6.6-73.6h-91v36.4h51.2l-3.3 37.2h-47.9v36.3z"/></svg>