<svg xmlns="http://www.w3.org/2000/svg" xml:space="preserve" viewBox="0 0 298.7 84.1"><path fill="#E6E6E6" d="M38.9 27.2c.7-1 1.4-1.1 2-1.1s1.6.1 2.3 1.1c5.3 7.3 14 21.8 20.5 32.4 4.2 7 7.4 12.3 8.1 13 2.5 2.6 5.9 1 7.9-1.9s2.5-4.9 2.5-7c0-1.5-28.3-54-31.1-58.4C48.3 1.1 47.4 0 42.7 0h-3.5c-4.7 0-5.3 1.1-8.1 5.3C28.3 9.6 0 62.2 0 63.7c0 2.1.5 4.1 2.5 7 2 2.9 5.4 4.5 7.9 1.9.7-.7 3.9-6 8.1-13 6.4-10.7 15.1-25.2 20.4-32.4zM101.7 4.6v64.5H141v-13h-25.7V42.4h22.9V29.3h-22.9V17.7H141V4.6h-39.3zM193.5 69.2l-16.3-23.4L192.4 24H177l-7.5 10.7-7.4-10.7h-15.6l15.2 21.9-16.2 23.3h15.4l8.5-12.3 8.5 12.3h15.6zM226.3 23c-6.2 0-11.1 2.6-14.2 7.3v-6.4h-12.9v60.2h12.9V62.8c3.1 4.7 8 7.3 14.2 7.3 11.6 0 20.9-10.6 20.9-23.6S237.9 23 226.3 23zm-2.9 34.6c-6.3 0-11.3-4.8-11.3-11.2 0-6.3 4.9-11.2 11.3-11.2 6.2 0 11.3 5 11.3 11.2-.1 6.4-5.1 11.2-11.3 11.2zM275.4 23C262.1 23 252 33.1 252 46.6c0 13.5 10.1 23.5 23.4 23.5 13.2 0 23.4-10 23.4-23.5-.1-13.5-10.2-23.6-23.4-23.6zm0 12.4c6 0 10.7 4.7 10.7 11.2 0 6.3-4.7 11.1-10.7 11.1-6.1 0-10.7-4.8-10.7-11.1 0-6.5 4.5-11.2 10.7-11.2z"/></svg>