<svg xmlns="http://www.w3.org/2000/svg" xml:space="preserve" style="enable-background:new 0 0 330.4 93" viewBox="0 0 330.4 93"><path d="M43 30c.7-1.1 1.6-1.2 2.2-1.2.7 0 1.8.1 2.5 1.2 5.9 8 15.5 24.1 22.6 35.9 4.6 7.7 8.2 13.6 9 14.4 2.7 2.8 6.5 1.1 8.7-2.1 2.2-3.2 2.8-5.4 2.8-7.7 0-1.6-31.2-59.7-34.4-64.6-3-4.6-4-5.8-9.2-5.8h-3.9c-5.2 0-5.9 1.2-8.9 5.8C31.2 10.7 0 68.8 0 70.4c0 2.4.6 4.6 2.8 7.7 2.2 3.2 6 5 8.7 2.1.7-.8 4.3-6.7 9-14.4C27.5 54.1 37.2 38.1 43 30zm69.5-24.9v71.3H156V62h-28.5V46.9h25.3V32.5h-25.3V19.6H156V5.1h-43.5zM214 76.5l-18-25.9 16.8-24.2h-17l-8.3 11.8-8.2-11.8H162l16.8 24.3-17.9 25.8h17l9.4-13.6 9.4 13.6H214zm36.3-51.1c-6.9 0-12.3 2.9-15.7 8v-7h-14.3V93h14.3V69.4c3.4 5.2 8.8 8.1 15.7 8.1 12.9 0 23.1-11.7 23.1-26.1 0-14.4-10.3-26-23.1-26zM247 63.7c-7 0-12.5-5.3-12.5-12.3 0-6.9 5.5-12.3 12.5-12.3 6.9 0 12.5 5.5 12.5 12.3 0 6.9-5.6 12.3-12.5 12.3zm57.5-38.3c-14.7 0-25.8 11.2-25.8 26.1 0 14.9 11.1 26 25.8 26 14.6 0 25.8-11.1 25.8-26 .1-14.9-11.2-26.1-25.8-26.1zm0 13.8c6.7 0 11.9 5.2 11.9 12.3 0 6.9-5.2 12.2-11.9 12.2-6.8 0-11.9-5.3-11.9-12.2.1-7.1 5.1-12.3 11.9-12.3z"/></svg>