<svg xmlns="http://www.w3.org/2000/svg" xml:space="preserve" style="enable-background:new 0 0 228.2 228.2" viewBox="0 0 228.2 228.2"><path d="M0 0h228.2v228.2H0z" style="fill:#e6e6e6"/><path d="M153.3 178.3c4.6 7.5 10.6 13 21.2 13 8.9 0 14.6-4.4 14.6-10.6 0-7.4-5.8-10-15.6-14.2l-5.4-2.3c-15.5-6.6-25.8-14.9-25.8-32.3 0-16.1 12.3-28.3 31.4-28.3 13.6 0 23.4 4.7 30.5 17.2l-16.7 10.7c-3.7-6.6-7.6-9.2-13.8-9.2-6.3 0-10.3 4-10.3 9.2 0 6.4 4 9 13.2 13l5.4 2.3c18.2 7.8 28.5 15.8 28.5 33.7 0 19.3-15.2 29.9-35.5 29.9-19.9 0-32.8-9.5-39.1-21.9l17.4-10.2zm-75.7 1.9c3.4 6 6.4 11 13.8 11 7 0 11.5-2.8 11.5-13.5v-72.9h21.4V178c0 22.2-13 32.3-32 32.3-17.2 0-27.1-8.9-32.2-19.6l17.5-10.5z" style="fill:#1a1a1a"/></svg>