<svg xmlns="http://www.w3.org/2000/svg" xml:space="preserve" viewBox="0 0 208.8 215"><path fill="#E6E6E6" fill-rule="evenodd" d="M208.7 48.6c.1.3.1.6.1.9v46.1c0 1.2-.6 2.3-1.7 2.9l-38.7 22.3V165c0 1.2-.6 2.3-1.7 2.9l-80.8 46.5c-.2.1-.4.2-.6.2-.1 0-.1.1-.2.1-.6.1-1.2.1-1.7 0-.1 0-.2-.1-.3-.1-.2-.1-.4-.1-.6-.2L1.7 168c-1-.6-1.7-1.7-1.7-2.9V26.6c0-.3 0-.6.1-.9 0-.1.1-.2.1-.3.1-.2.1-.4.2-.5.1-.1.2-.2.2-.3.1-.1.2-.3.3-.4l.3-.3c.1-.1.2-.2.4-.3L42.1.4c1-.6 2.3-.6 3.4 0l40.4 23.3c.1.1.2.2.4.3l.3.3c.1.1.2.3.3.4.1.1.2.2.2.3.1.2.2.3.2.5 0 .1.1.2.1.3.1.3.1.6.1.9v86.5l33.7-19.4V49.5c0-.3 0-.6.1-.9 0-.1.1-.2.1-.3.1-.2.1-.4.2-.5.1-.1.2-.2.2-.3.1-.1.2-.3.3-.4l.3-.3c.1-.1.2-.2.4-.3l40.4-23.3c1-.6 2.3-.6 3.4 0L207 46.5c.1.1.3.2.4.3l.3.3c.1.1.2.3.3.4.1.1.2.2.2.3.1.2.2.3.2.5.2.1.3.2.3.3zm-6.6 45.1V55.3L188 63.4l-19.5 11.3v38.4l33.6-19.4zm-40.4 69.4v-38.4l-19.2 11L87.6 167v38.8l74.1-42.7zM6.7 32.5v130.7l74.1 42.7V167l-38.7-21.9c-.1-.1-.2-.2-.4-.3-.1-.1-.2-.2-.3-.2-.1-.1-.2-.2-.3-.4l-.3-.3c-.1-.1-.1-.3-.2-.4-.1-.1-.1-.2-.2-.4 0-.2-.1-.3-.1-.5 0-.1-.1-.3-.1-.4V51.9L20.9 40.6 6.7 32.5zM43.8 7.3 10.1 26.6 43.8 46l33.7-19.4L43.8 7.3zm17.5 120.9L80.8 117V32.5l-14.1 8.1-19.5 11.3v84.5l14.1-8.2zM165 30.1l-33.7 19.4L165 68.9l33.7-19.4L165 30.1zm-3.3 44.6-19.5-11.3-14.2-8.1v38.4l19.5 11.2 14.1 8.1c.1.1.1-38.3.1-38.3zm-77.5 86.5 49.4-28.2 24.7-14.1-33.6-19.4L86 121.8l-35.3 20.3c-.1.1 33.5 19.1 33.5 19.1z" clip-rule="evenodd"/></svg>