<svg xmlns="http://www.w3.org/2000/svg" xml:space="preserve" viewBox="0 0 394 80"><path fill="#E6E6E6" d="M261.9 0h68.6v12.7h-27.2v66.6h-13.6V12.7h-27.8V0zM149.1 0v12.7H94v20.4h44.2v12.7H94v20.9h55v12.7H80.4V0h68.7zM183.3.1h-17.8l63.8 79.3h17.9l-31.9-39.6L247.2.2h-17.8l-23 28.5L183.3.1zM201.6 56.7l-8.9-11.1-27.2 33.8h17.9l18.2-22.7z"/><path fill="#E6E6E6" fill-rule="evenodd" d="M80.9 79.3 17 0H0v79.3h13.6V17l50.2 62.4h17.1z" clip-rule="evenodd"/><path fill="#E6E6E6" d="M333.6 78.9c-1 0-1.8-.3-2.6-1-.7-.7-1.1-1.5-1.1-2.5s.3-1.8 1.1-2.5 1.6-1 2.6-1 1.8.3 2.5 1 1.1 1.5 1.1 2.5c0 .7-.2 1.3-.5 1.8s-.8 1-1.3 1.3c-.6.2-1.1.4-1.8.4zM356.8 45.4h6v23.2c0 2.1-.5 4-1.4 5.5-.9 1.5-2.2 2.7-3.8 3.5-1.6.8-3.5 1.2-5.7 1.2-2 0-3.7-.4-5.3-1-1.6-.7-2.8-1.7-3.7-3.1-.9-1.4-1.4-3.1-1.4-5.1h6c0 .9.2 1.7.6 2.3s.9 1.1 1.6 1.5c.7.3 1.5.5 2.4.5 1 0 1.8-.2 2.5-.6.7-.4 1.2-1 1.5-1.8.4-.8.5-1.8.5-2.9V45.4zM387.7 54.5c-.1-1.4-.8-2.5-1.9-3.3-1.1-.8-2.6-1.2-4.4-1.2-1.3 0-2.4.2-3.3.6-.9.4-1.6.9-2.1 1.5s-.7 1.4-.7 2.2c0 .7.2 1.3.5 1.8s.8.9 1.3 1.3c.6.4 1.2.6 1.8.9.7.2 1.4.4 2 .6l3.1.8c1.3.3 2.5.7 3.7 1.2 1.2.5 2.2 1.1 3.2 1.9.9.8 1.7 1.7 2.2 2.7.5 1.1.8 2.3.8 3.7 0 1.9-.5 3.6-1.5 5.1-1 1.5-2.5 2.6-4.4 3.4-1.9.8-4.2 1.2-6.9 1.2-2.6 0-4.9-.4-6.8-1.2-1.9-.8-3.4-2-4.5-3.5s-1.7-3.4-1.7-5.6h6c.1 1.1.5 2.1 1.1 2.9.6.8 1.5 1.3 2.5 1.7 1 .4 2.2.6 3.4.6 1.3 0 2.5-.2 3.5-.6 1-.4 1.8-.9 2.3-1.6.6-.7.9-1.5.9-2.5 0-.9-.3-1.6-.8-2.1-.5-.6-1.2-1-2.1-1.4-.9-.4-2-.7-3.2-1l-3.8-1c-2.8-.7-4.9-1.8-6.5-3.2-1.6-1.4-2.4-3.3-2.4-5.7 0-1.9.5-3.7 1.6-5.1 1.1-1.5 2.5-2.6 4.4-3.4 1.9-.8 4-1.2 6.3-1.2 2.4 0 4.5.4 6.3 1.2 1.8.8 3.2 1.9 4.2 3.4 1 1.4 1.6 3.1 1.6 4.9h-5.7z"/></svg>