<svg xmlns="http://www.w3.org/2000/svg" xml:space="preserve" style="enable-background:new 0 0 721 145.4" viewBox="0 0 721 145.4"><path d="M479.3.1h125.6v23.2h-49.8v121.9h-24.9v-122h-50.9V.1zM272.8.1v23.2H172.1v37.3h81v23.2h-81V122h100.7v23.2H147.2V.1h125.6zm62.7 0h-32.6l116.8 145.1h32.7L394 72.7 452.3.2l-32.6.1-42 52.2L335.5.1zm33.4 103.7-16.3-20.3-49.8 61.9h32.7l33.4-41.6z"/><path d="M148.1 145.2 31.1 0H0v145.1h24.9V31l91.9 114.2h31.3z" style="fill-rule:evenodd;clip-rule:evenodd"/><path d="M610.5 144.3c-1.8 0-3.4-.7-4.7-1.9-1.3-1.3-1.9-2.8-1.9-4.6 0-1.8.6-3.3 1.9-4.5 1.2-1.2 2.9-1.9 4.7-1.9 1.8 0 3.3.6 4.6 1.9 1.3 1.3 2 2.8 2 4.5 0 1.2-.3 2.3-.9 3.3-.6 1-1.4 1.8-2.4 2.3-1.1.6-2.2.9-3.3.9zM653 83.2h11v42.5c0 3.9-.9 7.3-2.5 10.1-1.7 2.8-4 5-7 6.5s-6.4 2.3-10.3 2.3c-3.6 0-6.8-.6-9.7-1.9-2.9-1.3-5.1-3.2-6.8-5.7-1.7-2.5-2.5-5.6-2.5-9.3h11.1c0 1.6.4 3 1.1 4.2.7 1.2 1.7 2.1 2.9 2.7 1.3.6 2.7.9 4.4.9 1.8 0 3.3-.4 4.5-1.1 1.2-.7 2.2-1.8 2.8-3.3.6-1.4 1-3.2 1-5.4V83.2zm56.5 16.6c-.3-2.6-1.5-4.6-3.5-6-2.1-1.4-4.8-2.2-8.1-2.2-2.3 0-4.3.3-6 1-1.7.7-2.9 1.6-3.8 2.8-.9 1.2-1.3 2.5-1.4 4 0 1.3.3 2.4.9 3.3.6.9 1.4 1.7 2.4 2.3 1.1.7 2.2 1.2 3.4 1.6 1.2.4 2.5.8 3.7 1.1l5.8 1.4c2.3.5 4.5 1.2 6.7 2.2 2.1.9 4 2 5.8 3.4 1.7 1.4 3.1 3.1 4.1 5 1 1.9 1.5 4.2 1.5 6.9 0 3.5-.9 6.7-2.8 9.3-1.8 2.7-4.5 4.8-8 6.3s-7.6 2.3-12.6 2.3c-4.8 0-8.9-.7-12.4-2.2-3.5-1.4-6.2-3.6-8.2-6.4-2-2.8-3-6.2-3.2-10.2h10.9c.2 2.1.8 3.8 2 5.3 1.2 1.4 2.7 2.4 4.5 3.1 1.9.7 4 1 6.3 1 2.4 0 4.5-.4 6.4-1.1 1.8-.7 3.3-1.7 4.3-3s1.6-2.8 1.6-4.5c0-1.6-.5-2.9-1.4-3.9-.9-1-2.2-1.9-3.8-2.6-1.9-.8-3.8-1.4-5.8-1.9l-7-1.8c-5-1.3-9-3.2-12-5.8-2.9-2.6-4.4-6.1-4.4-10.4 0-3.6 1-6.7 3-9.4s4.6-4.8 8-6.2c3.4-1.5 7.3-2.2 11.5-2.2 4.4 0 8.2.7 11.5 2.2 3.3 1.5 5.9 3.5 7.7 6.2 1.9 2.6 2.9 5.6 2.9 9 .2.1-10.5.1-10.5.1z"/></svg>