<svg xmlns="http://www.w3.org/2000/svg" xml:space="preserve" viewBox="0 0 398 51.7"><path fill="#E6E6E6" d="M172.2 33.6h26.2l-13.9-22.4L159 51.6h-11.6l31-48.5c2.3-3.3 6.9-4.2 10.3-1.8.7.5 1.3 1.1 1.8 1.7l31.1 48.6H210l-5.5-9H178l-5.8-9m120.5 9V.5h-9.9v46.3c0 1.3.5 2.5 1.5 3.4.9 1 2.2 1.5 3.6 1.5h44.8l5.8-9-45.8-.1m-162.9-7.5c9.6 0 17.3-7.7 17.3-17.3S139.4.5 129.8.5H86.7v51.2h9.8V9.5h32.6c4.6 0 8.3 3.7 8.3 8.3s-3.7 8.3-8.3 8.3h-27.7l29.4 25.6h14.3l-19.7-16.6h4.4M26.3 51.7H56c14.1-.4 25.3-12.1 24.9-26.2C80.6 11.8 69.6.9 56 .5H26.3C12.1.1.4 11.3 0 25.4s10.8 25.9 24.9 26.2c.5.1.9.1 1.4.1m29-9H26.9c-9.1-.3-16.3-7.9-16-17.1.3-8.7 7.3-15.7 16-16h28.4c9.1-.3 16.8 6.9 17.1 16 .3 9.1-6.9 16.8-16 17.1h-1.1m186.9 9h30.4l5.8-9H243c-9.1.3-16.8-6.9-17.1-16-.3-9.1 6.9-16.8 16-17.1H271.8l5.8-9h-35.3c-14.1-.4-25.9 10.8-26.2 24.9-.4 14.1 10.8 25.9 24.9 26.2h1.2m120.3-9c-7.4 0-13.9-4.9-15.9-12.1h42.1l5.8-9h-47.8c2-7.1 8.5-12.1 15.9-12.1h28.9l5.8-9H362c-14.1.4-25.3 12.1-24.9 26.2.4 13.6 11.3 24.6 24.9 24.9h30.4l5.8-9-35.7.1"/></svg>