<svg xmlns="http://www.w3.org/2000/svg" xmlns:xlink="http://www.w3.org/1999/xlink" xml:space="preserve" id="svg3430" x="0" y="0" style="enable-background:new 0 0 691.1 363.6" version="1.1" viewBox="0 0 691.1 363.6"><style>.st2{fill:#1a1a1a}.st3{fill:#fff}</style><g id="g3438" transform="matrix(1.25 0 0 -1.25 -4.4 394.299)"><g id="g3440"><defs><path id="SVGID_1_" d="M3.4 170c0-80.3 123.8-145.4 276.5-145.4S556.4 89.7 556.4 170c0 80.3-123.8 145.4-276.5 145.4S3.4 250.3 3.4 170"/></defs><use xlink:href="#SVGID_1_" style="overflow:visible;fill:#e6e6e6"/><clipPath id="SVGID_2_"><use xlink:href="#SVGID_1_" style="overflow:visible"/></clipPath><g id="g3442" style="clip-path:url(#SVGID_2_)"><g id="g3448"><g id="g3450"><path id="path3462" d="M3.4 170c0-80.3 123.8-145.4 276.5-145.4S556.4 89.7 556.4 170c0 80.3-123.8 145.4-276.5 145.4S3.4 250.3 3.4 170" style="fill:#e6e6e6"/></g></g></g></g><g id="g3464"><defs><path id="SVGID_3_" d="M-80.1-32.5h720v405h-720z"/></defs><clipPath id="SVGID_4_"><use xlink:href="#SVGID_3_" style="overflow:visible"/></clipPath></g><g id="g3476"><g id="g3478"><g id="g3484" transform="translate(161.734 145.307)"><path id="path3486" d="M-8.1 8C4 8 13 10.2 18.7 14.6 24.3 19 28.2 26.5 30.3 37c1.9 9.8 1.2 16.7-2.2 20.3C24.7 61.1 17.3 63 6.2 63h-19.3L-23.8 8h15.7zm-63-67.8c-.9 0-1.7.4-2.3 1.1-.6.7-.8 1.6-.6 2.5l28.3 145.8c.3 1.4 1.5 2.4 2.9 2.4h61.1c19.2 0 33.5-5.2 42.4-15.5 9-10.3 11.8-24.8 8.3-42.9-1.4-7.4-3.9-14.3-7.3-20.4C58.2 7 53.6 1.3 48.1-3.7 41.5-9.9 34-14.4 25.9-17.1 17.9-19.7 7.6-21-4.7-21h-24.7l-7.1-36.3c-.3-1.4-1.5-2.4-2.9-2.4h-31.7z" class="st2"/></g><g id="g3488" transform="translate(159.224 197.307)"><path id="path3490" d="M-8.1 8H8.7c13.4 0 18.1-2.9 19.7-4.7 2.6-2.9 3.1-9.1 1.4-17.8-1.9-9.8-5.4-16.7-10.5-20.5-5.2-4-13.6-6-24.9-6h-12l9.5 49zm28.9 35h-61.1c-2.9 0-5.3-2-5.9-4.9l-28.3-145.8c-.3-1.8.1-3.6 1.3-5 1.1-1.4 2.8-2.2 4.6-2.2h31.8c2.9 0 5.3 2 5.9 4.9l6.6 33.9h22.2c12.6 0 23.2 1.4 31.5 4.1 8.5 2.8 16.4 7.5 23.4 14 5.8 5.3 10.5 11.2 14.1 17.7 3.6 6.4 6.2 13.6 7.7 21.3 3.7 19.1.7 34.4-9 45.5C55.9 37.4 40.8 43 20.8 43m-45.7-90h19.3c12.8 0 22.3 2.4 28.6 7.2 6.3 4.8 10.5 12.9 12.7 24.2 2.1 10.8 1.1 18.5-2.9 22.9-4 4.5-12.1 6.7-24.1 6.7H-13l-11.9-61m45.7 84c18.4 0 31.8-4.8 40.2-14.5 8.4-9.6 11-23.1 7.6-40.4-1.4-7.1-3.7-13.6-7-19.5S54-48.7 48.7-53.6c-6.3-5.9-13.4-10.2-21.1-12.7C19.7-68.7 9.8-70-2.2-70h-27.2l-7.5-38.8h-31.8L-40.3 37h61.1" class="st3"/></g><g id="g3492" transform="translate(311.583 116.307)"><path id="path3494" d="M-8.1 8c-.9 0-1.7.4-2.3 1.1-.6.7-.8 1.6-.6 2.5L1.5 76.1c1.2 6.1.9 10.5-.8 12.4-1.1 1.1-4.2 3-13.6 3h-22.7l-15.8-81.1C-51.7 9-52.9 8-54.3 8h-31.5c-.9 0-1.7.4-2.3 1.1-.6.7-.8 1.6-.6 2.5l28.3 145.8c.3 1.4 1.5 2.4 2.9 2.4H-26c.9 0 1.7-.4 2.3-1.1.6-.7.8-1.6.6-2.5l-6.8-35.2h24.4c18.6 0 31.2-3.3 38.6-10 7.5-6.9 9.8-17.9 6.9-32.7L26.9 10.4C26.6 9 25.4 8 23.9 8h-32z" class="st2"/></g><g id="g3496" transform="translate(293.661 271.057)"><path id="path3498" d="M-8.1 8h-31.5c-2.9 0-5.3-2-5.9-4.9l-28.3-145.8c-.3-1.8.1-3.6 1.3-5s2.8-2.2 4.6-2.2h31.5c2.9 0 5.3 2 5.9 4.9l15.3 78.6H5c9.4 0 11.3-2 11.4-2.1.6-.6 1.3-3.4.1-9.8L4-142.6c-.3-1.8.1-3.6 1.3-5s2.8-2.2 4.6-2.2h32c2.9 0 5.3 2 5.9 4.9L61-77.1c3.1 15.9.4 27.9-7.9 35.5-7.9 7.3-21.2 10.8-40.6 10.8H-8.3L-2.2.8c.3 1.8-.1 3.6-1.3 5C-4.6 7.2-6.3 8-8.1 8m0-6-7.5-38.8h28.1c17.7 0 29.8-3.1 36.5-9.2 6.7-6.2 8.7-16.1 6-29.9l-13.2-67.8h-32l12.5 64.5c1.4 7.3.9 12.3-1.6 15-2.5 2.7-7.7 4-15.8 4h-25.2l-16.2-83.5H-68L-39.6 2h31.5" class="st3"/></g><g id="g3500" transform="translate(409.55 145.307)"><path id="path3502" d="M-8.1 8C4 8 13 10.2 18.7 14.6 24.3 19 28.2 26.5 30.3 37c1.9 9.8 1.2 16.7-2.2 20.3C24.7 61.1 17.3 63 6.2 63h-19.3L-23.8 8h15.7zm-63-67.8c-.9 0-1.7.4-2.3 1.1-.6.7-.8 1.6-.6 2.5l28.3 145.8c.3 1.4 1.5 2.4 2.9 2.4h61.1c19.2 0 33.5-5.2 42.4-15.5 9-10.3 11.8-24.8 8.3-42.9-1.4-7.4-3.9-14.3-7.3-20.4C58.2 7 53.6 1.3 48.1-3.7 41.5-9.9 34-14.4 25.9-17.1 17.9-19.7 7.6-21-4.7-21h-24.7l-7.1-36.3c-.3-1.4-1.5-2.4-2.9-2.4h-31.7z" class="st2"/></g><g id="g3504" transform="translate(407.04 197.307)"><path id="path3506" d="M-8.1 8H8.7c13.4 0 18.1-2.9 19.7-4.7 2.6-2.9 3.1-9.1 1.4-17.8-1.9-9.8-5.4-16.7-10.5-20.5-5.2-4-13.6-6-24.9-6h-12l9.5 49zm28.9 35h-61.1c-2.9 0-5.3-2-5.9-4.9l-28.3-145.8c-.3-1.8.1-3.6 1.3-5 1.1-1.4 2.8-2.2 4.6-2.2h31.8c2.9 0 5.3 2 5.9 4.9l6.6 33.9h22.2c12.6 0 23.2 1.4 31.5 4.1 8.5 2.8 16.4 7.5 23.4 14 5.8 5.3 10.5 11.2 14.1 17.7 3.6 6.4 6.2 13.6 7.7 21.3 3.7 19.1.7 34.4-9 45.5C55.9 37.4 40.8 43 20.8 43m-45.7-90h19.3c12.8 0 22.3 2.4 28.6 7.2 6.3 4.8 10.5 12.9 12.7 24.2 2.1 10.8 1.1 18.5-2.9 22.9-4 4.5-12.1 6.7-24.1 6.7H-13l-11.9-61m45.7 84c18.4 0 31.8-4.8 40.2-14.5S72-.6 68.6-17.9c-1.4-7.1-3.7-13.6-7-19.5S54-48.7 48.7-53.6c-6.3-5.9-13.4-10.2-21.1-12.7C19.7-68.7 9.8-70-2.2-70h-27.2l-7.5-38.8h-31.8L-40.3 37h61.1" class="st3"/></g></g></g></g></svg>