<svg xmlns="http://www.w3.org/2000/svg" xml:space="preserve" viewBox="0 0 2673.4 712"><path fill="#E6E6E6" d="M375 0c5.1.7 10.1 1.5 15.2 2.2 31.7 4.2 59.7 17 84.6 36.7 38.3 30.3 62 70.3 76.8 116.2 8.1 25.1 12.6 50.9 14.6 77.2 0 .3-.2.6-.5 1.3-1.3-.3-2.7-.6-4.1-1-12.7-3.9-25.4-7.9-38.1-11.6-2.9-.8-3.9-2-4.3-4.9-7.6-52.5-26.4-99.9-65-137.7-21.8-21.3-48.3-33.7-79.1-32.7-44.9 1.4-85.6 15.5-117.1 48.9-22.5 24-37.2 53-47.3 84.3-7.6 23.5-11.6 47.7-13.3 72.3-3.8 56.2 4.5 110.5 26.4 162.4 6.2 14.7 14.1 28.6 21.1 43 1.5 3.1 3.6 4.2 7.2 3.7 25.8-3.3 52.3 16.9 56.4 43 4.6 28.9-12.8 54.8-41 61.1-29.9 6.7-59.7-14.5-63.4-44.9-1.3-10.5.3-20.3 4.8-29.5 1.8-3.7 1.4-6.3-.5-9.7-20.9-36.4-36.7-74.9-46.5-115.8-5.2-21.5-8.4-43.3-9.8-65.4-3.8-57.9 5.7-113.5 29.2-166.3 23.5-52.7 60.8-92.7 114.2-116.4 19.8-8.8 40.5-13.9 62.2-15 2.1-.1 4.2-.8 6.3-1.2 3.7-.2 7.3-.2 11-.2z"/><path fill="#E6E6E6" d="M0 522c.7-5.7 1.6-11.4 2.2-17.2 4.8-42.5 22-79.8 48.3-113.2 16.1-20.4 35-38 55.7-53.5 1.2-.9 2.4-1.6 4.3-2.8 1.4 5.7 2.7 11 4.1 16.2 2.3 8.5 4.3 17.1 7 25.4 1.4 4.3.2 6.5-3.1 9.2-26.9 22.1-48.6 48.3-63.4 80-9.1 19.6-14.5 40.4-14.1 62.1.9 52.1 31.9 115.6 105.1 132 25.6 5.7 51.4 6.6 77.4 3.7 55-6.1 102.6-30.3 147.4-60.9 42.7-29.1 77.2-65.7 101.9-111.3 2.8-5.3 3.7-8.7-.6-14.4-24.1-31.5-5.9-76.9 33.3-83.8 31.2-5.5 60.6 18.7 61.3 50.3.6 27.1-16.5 48.3-43.1 53.9-2.2.5-4.6 3-5.8 5.3-11.9 23.4-25.8 45.5-42.1 66-49.7 62.7-113.5 104-189.7 126.6-35.2 10.4-71 16.9-107.7 13.9-54.2-4.4-102.7-22.2-139.3-64.6-19-22-29.2-48.3-34.6-76.4-1.7-8.9-2.2-18.1-3.3-27.2-.2-1.8-.8-3.5-1.2-5.3v-14z"/><path fill="#E6E6E6" d="M540 712c-7.2-.8-14.5-1.5-21.7-2.4-32.2-3.7-62.6-13.1-92.8-27 5-3.9 9.6-7.4 14-11 8.3-6.7 16.5-13.5 24.9-20.1 1.4-1.1 4.1-2 5.6-1.4 22.2 9 45 15.2 68.8 17.6 39.6 4.1 77.3-1.4 110.1-25.7 30.7-22.7 50.3-53 56.1-91.1 4.1-27.2-1.8-53.2-12.4-78.3-21.5-51-57.1-89.8-103.1-119.7-41.8-27.2-87.1-45.6-136.3-54.2-24.3-4.3-48.8-6-73.6-5.2-4.9.2-8 1.5-10.6 6.3-10.4 19.2-33.3 30.1-53.5 26.3-24-4.5-40.6-21.4-44.5-44-4-23.5 9.7-48.6 33.1-57.7 23-8.9 49.2-.8 62.9 20.1 2.5 3.8 5.1 4.8 9.3 4.8 51.5-.8 101.8 5.8 150.6 22.8 74.2 25.9 135 70.1 180.5 134.4 21 29.8 34.6 63 39.6 99.2 6.1 44.1.9 86.1-26.3 123.1-26.1 35.4-61.3 58.2-102.8 71.6-18.6 6-37.7 9.6-57.2 10.2-1.9.1-3.9.8-5.8 1.2-4.9.2-9.9.2-14.9.2z"/><g fill="#CCC"><path d="M1456.6 571.4c-27.2-44.5-54.5-88.8-81.5-133.4-8.7-14.3-19.5-26.1-34.1-34.3-.6-.3-1.2-.5-2.5-1.1 3-1.3 4.7-2.1 6.3-2.8 20.1-8.6 37.4-21 51.1-38.1 19.8-24.7 27.5-53.1 26.4-84.4-1.6-43.2-20-76.3-59-96.7-29.5-15.4-61.4-21-94.1-21.5-48.8-.7-97.6-.3-146.5-.3-1.4 0-2.9.2-4.5.3v418.3h96.6V422.9c8.7 0 16.7.2 24.7 0 13.6-.5 23 5.6 29.6 17.3 22.2 39.1 44.7 78 66.8 117.1 8 14.1 19.9 20.5 35.6 20.6 28 .1 56 0 84 0 1.4 0 2.8-.2 4.6-.3-1.4-2.5-2.4-4.3-3.5-6.2zm-129.1-276.6c-1.1 16.5-5.5 31.4-17.9 43.1-9.2 8.7-20.4 14.6-32.7 15.8-20.3 2-40.7 2.3-61.7 3.3V232.6c.4-.3.7-.7.9-.7 22.6.3 45.3-2.4 67.6 2.9 30 7.1 45.9 29.2 43.8 60zM1933.7 147.7v150c-2.1-1.5-3.4-2.5-4.8-3.3-7.6-4.5-14.7-10.2-22.8-13.1-37.5-13.5-73.5-9.2-106.6 13-27.8 18.7-43.8 45.9-53.2 77.4-7.8 26-9.3 52.6-7.2 79.6 2 26.3 7.6 51.8 20.1 75.1 20.2 37.6 50.8 58 94.7 55.9 26.4-1.3 49.6-10.4 69.7-27.5 5.2-4.4 10.1-9.1 15.5-14.1 2.1 6.8 4.1 13.3 6.1 19.8 3.7 12.2 10.4 17.3 23 17.3h54.6V147.7h-89.1zm0 333.2c0 3-1.5 6.5-3.4 8.8-13 15.8-29.8 24-50.4 24.5-19.7.4-32.8-8-40.6-26.3-6-14.1-8.1-29.1-8.8-44.3-1.2-23.8-.3-47.3 8.6-69.8 6.9-17.4 18.4-30.3 37.8-33.3 20.3-3.1 38.8 1 53.6 16.2 1.7 1.8 3 4.8 3 7.3.3 19.7.1 39.3.1 59 .2 19.3.4 38.6.1 57.9zM2250.2 280h88.7v297.6c-1.6.1-3.2.2-4.9.2h-49.5c-12.4 0-19.1-5-22.8-16.8-1.5-4.7-2.9-9.5-4.6-14.9-1.5 1.3-2.6 2.1-3.6 3-23.4 22.3-51.3 33.7-83.6 33.4-51.7-.4-88.1-31-97.7-81.8-1.9-10.2-3-20.8-3.1-31.2-.3-61.5-.1-123-.1-184.4 0-1.6.2-3.2.3-5.1h88.8v6.5c0 60.8-.2 121.6.2 182.4 0 8 1.5 16.4 4.2 23.9 5.1 14.3 16.4 21.2 31.4 22.2 21.6 1.5 39-8.1 54.6-21.7 1.4-1.2 1.6-4.1 1.6-6.3.1-65.5.1-131 .1-196.4V280z"/><path d="M1661.9 444.9c13 0 26 .2 39-.2 12.2-.4 16.9-5.1 18.1-17.4 1.8-17.9.9-35.7-3.1-53.1-8.9-38.6-29.7-68.5-66.2-85.7-25.8-12.2-53.3-15.5-81.4-12.3-56.7 6.3-97 35.3-118.9 88.3-13.4 32.3-13.6 66-6.9 99.7 8.6 43.3 30.5 77.8 69.9 99.7 25.7 14.2 53.6 19.4 82.8 18.6 26.4-.7 52-4.8 76.2-16 18-8.3 33.8-19.6 46.8-35.1-9.3-11.5-18.1-22.9-27.6-33.8-2.4-2.7-6.8-5-10.3-5.1-6.1-.1-12.5 1-18.4 2.8-5.2 1.6-9.9 4.7-14.7 7.4-19.9 10.8-40.8 16.1-63.5 12.1-30.7-5.4-51.7-26.4-55.4-69.8h6.4c42.2-.1 84.7-.1 127.2-.1zm-74.2-108.3c28.9.5 48.7 17.8 51.5 46.3 1 10.1 1 10.1-9.2 10.1h-100.7c4.3-34 24.1-57 58.4-56.4zM2355.6 577.9c9.7-14.9 18.7-28.8 27.7-42.8 23.1-35.6 46.2-71.3 69.5-106.8 2.3-3.5 2.1-5.8-.1-9.2-29.8-44.4-59.4-88.9-89-133.4-1.1-1.6-2.2-3.3-3.7-5.7 2.1-.2 3.7-.4 5.2-.4 26.5 0 53 .3 79.5-.1 11.4-.2 19 3.9 24.8 14 15.6 26.9 32 53.4 48.1 80.1.8 1.3 1.6 2.5 2.4 3.6 8.8-15.5 17.5-30.9 26.2-46.2 7.1-12.4 14.3-24.8 21.2-37.3 5.3-9.7 12.7-14.4 24.2-14.1 23.8.5 47.7.2 71.5.2h6.3c-1.2 2-1.9 3.4-2.8 4.7-29.9 43.7-59.9 87.4-89.9 131-2.2 3.2-2.4 5.3-.3 8.7 31.6 49.6 63 99.3 94.4 148.9.9 1.3 1.6 2.8 2.7 4.8h-5.5c-26.2 0-52.3-.2-78.5.1-11.9.1-20-5.2-25.8-14.9-16.8-28.7-33.5-57.5-50.2-86.3-.9-1.5-1.8-3-2.4-3.8-16.6 28.4-33.2 56.8-49.9 85.1-1.8 3.1-4 6.1-6.2 9-5.8 7.7-13.3 11.2-23.3 11-23.2-.5-46.3-.1-69.5-.1-1.8-.1-3.7-.1-6.6-.1z"/></g></svg>