<svg xmlns="http://www.w3.org/2000/svg" xml:space="preserve" viewBox="0 0 198.1 197.6"><linearGradient id="a" x1="174.073" x2="132.276" y1="-17.659" y2="56.136" gradientTransform="matrix(1 0 0 -1 0 197.89)" gradientUnits="userSpaceOnUse"><stop offset="0" style="stop-color:#ccc"/><stop offset="0" style="stop-color:#ccc"/><stop offset=".41" style="stop-color:#fff"/><stop offset=".99" style="stop-color:#aaa"/><stop offset="1" style="stop-color:#aaa"/></linearGradient><path fill="url(#a)" fill-rule="evenodd" d="M153.5 130.4 40.4 197.6l146.4-10 11.3-147.7z" clip-rule="evenodd"/><linearGradient id="b" x1="194.895" x2="141.028" y1="44.332" y2="80.481" gradientTransform="matrix(1 0 0 -1 0 197.89)" gradientUnits="userSpaceOnUse"><stop offset="0" style="stop-color:#ccc"/><stop offset="0" style="stop-color:#ccc"/><stop offset=".99" style="stop-color:#ccc"/><stop offset="1" style="stop-color:#ccc"/></linearGradient><path fill="url(#b)" fill-rule="evenodd" d="m187.1 187.5-12.6-86.9-34.3 45.3z" clip-rule="evenodd"/><linearGradient id="c" x1="151.795" x2="97.93" y1="-19.895" y2="16.252" gradientTransform="matrix(1 0 0 -1 0 197.89)" gradientUnits="userSpaceOnUse"><stop offset="0" style="stop-color:#ccc"/><stop offset="0" style="stop-color:#ccc"/><stop offset=".99" style="stop-color:#ccc"/><stop offset="1" style="stop-color:#ccc"/></linearGradient><path fill="url(#c)" fill-rule="evenodd" d="M187.3 187.5 95 180.3l-54.1 17.1z" clip-rule="evenodd"/><linearGradient id="d" x1="38.696" x2="47.047" y1="70.499" y2="16.228" gradientTransform="matrix(1 0 0 -1 0 197.89)" gradientUnits="userSpaceOnUse"><stop offset="0" style="stop-color:#fff"/><stop offset="0" style="stop-color:#fff"/><stop offset=".23" style="stop-color:#ccc"/><stop offset=".46" style="stop-color:#fff"/><stop offset=".99" style="stop-color:#aaa"/><stop offset="1" style="stop-color:#aaa"/></linearGradient><path fill="url(#d)" fill-rule="evenodd" d="m41 197.4 23-75.5-50.7 10.9z" clip-rule="evenodd"/><linearGradient id="e" x1="96.133" x2="99.21" y1="121.174" y2="65.788" gradientTransform="matrix(1 0 0 -1 0 197.89)" gradientUnits="userSpaceOnUse"><stop offset="0" style="stop-color:#fff"/><stop offset="0" style="stop-color:#fff"/><stop offset=".23" style="stop-color:#ccc"/><stop offset=".56" style="stop-color:#aaa"/><stop offset=".99" style="stop-color:#aaa"/><stop offset="1" style="stop-color:#aaa"/></linearGradient><path fill="url(#e)" fill-rule="evenodd" d="M140.2 146.2 119 63.1 58.3 120z" clip-rule="evenodd"/><linearGradient id="f" x1="147.103" x2="156.315" y1="172.369" y2="132.674" gradientTransform="matrix(1 0 0 -1 0 197.89)" gradientUnits="userSpaceOnUse"><stop offset="0" style="stop-color:#fff"/><stop offset="0" style="stop-color:#fff"/><stop offset=".18" style="stop-color:#ccc"/><stop offset=".4" style="stop-color:#fff"/><stop offset=".99" style="stop-color:#aaa"/><stop offset="1" style="stop-color:#aaa"/></linearGradient><path fill="url(#f)" fill-rule="evenodd" d="M193.3 64.3 136 17.5l-16 51.6z" clip-rule="evenodd"/><linearGradient id="g" x1="118.976" x2="158.669" y1="186.348" y2="206.194" gradientTransform="matrix(1 0 0 -1 0 197.89)" gradientUnits="userSpaceOnUse"><stop offset="0" style="stop-color:#fff"/><stop offset="0" style="stop-color:#fff"/><stop offset=".54" style="stop-color:#fff"/><stop offset=".99" style="stop-color:#aaa"/><stop offset="1" style="stop-color:#aaa"/></linearGradient><path fill="url(#g)" fill-rule="evenodd" d="m166.5.8-33.7 18.6L111.5.5z" clip-rule="evenodd"/><linearGradient id="h" x1="3.904" x2="7.171" y1="84.335" y2="51.627" gradientTransform="matrix(1 0 0 -1 0 197.89)" gradientUnits="userSpaceOnUse"><stop offset="0" style="stop-color:#fff"/><stop offset="0" style="stop-color:#fff"/><stop offset=".31" style="stop-color:#fff"/><stop offset=".99" style="stop-color:#aaa"/><stop offset="1" style="stop-color:#aaa"/></linearGradient><path fill="url(#h)" fill-rule="evenodd" d="m0 158.1 14.1-25.8-11.4-30.7z" clip-rule="evenodd"/><path fill="#FFF" fill-rule="evenodd" d="m1.9 100.6 11.5 32.6 50-11.2 57.1-53 16.1-51.1L111.2 0 68.1 16.1C54.5 28.8 28.2 53.7 27.2 54.2c-.9.5-17.4 31.6-25.3 46.4z" clip-rule="evenodd"/><linearGradient id="i" x1="-18.556" x2="135.015" y1="42.786" y2="200.7" gradientTransform="matrix(1 0 0 -1 0 197.89)" gradientUnits="userSpaceOnUse"><stop offset="0" style="stop-color:#aaa"/><stop offset="0" style="stop-color:#aaa"/><stop offset=".07" style="stop-color:#fff"/><stop offset=".17" style="stop-color:#fff"/><stop offset=".27" style="stop-color:#fff"/><stop offset=".33" style="stop-color:#ccc"/><stop offset=".46" style="stop-color:#ccc"/><stop offset=".72" style="stop-color:#aaa"/><stop offset=".99" style="stop-color:#fff"/><stop offset="1" style="stop-color:#fff"/></linearGradient><path fill="url(#i)" fill-rule="evenodd" d="M42.3 42c29.4-29.2 67.4-46.4 81.9-31.7 14.6 14.7-.9 50.4-30.3 79.6S27 137.2 12.5 122.5c-14.6-14.6.4-51.3 29.8-80.5z" clip-rule="evenodd"/><linearGradient id="j" x1="99.075" x2="52.818" y1="26.857" y2="38.274" gradientTransform="matrix(1 0 0 -1 0 197.89)" gradientUnits="userSpaceOnUse"><stop offset="0" style="stop-color:#ccc"/><stop offset="0" style="stop-color:#ccc"/><stop offset=".54" style="stop-color:#ccc"/><stop offset=".99" style="stop-color:#aaa"/><stop offset="1" style="stop-color:#aaa"/></linearGradient><path fill="url(#j)" fill-rule="evenodd" d="m41 197.4 22.9-75.7 75.9 24.4c-27.5 25.7-58 47.5-98.8 51.3z" clip-rule="evenodd"/><linearGradient id="k" x1="178.526" x2="137.433" y1="82.375" y2="119.206" gradientTransform="matrix(1 0 0 -1 0 197.89)" gradientUnits="userSpaceOnUse"><stop offset="0" style="stop-color:#ccc"/><stop offset="0" style="stop-color:#ccc"/><stop offset=".99" style="stop-color:#aaa"/><stop offset="1" style="stop-color:#aaa"/></linearGradient><path fill="url(#k)" fill-rule="evenodd" d="m120.6 68.9 19.5 77.2c22.9-24.1 43.5-50 53.6-82.1-.1 0-73.1 4.9-73.1 4.9z" clip-rule="evenodd"/><linearGradient id="l" x1="193.623" x2="173.154" y1="149.952" y2="171.835" gradientTransform="matrix(1 0 0 -1 0 197.89)" gradientUnits="userSpaceOnUse"><stop offset="0" style="stop-color:#ccc"/><stop offset="0" style="stop-color:#ccc"/><stop offset=".99" style="stop-color:#ccc"/><stop offset="1" style="stop-color:#ccc"/></linearGradient><path fill="url(#l)" fill-rule="evenodd" d="M193.4 64.4C201.2 40.9 203 7.1 166.2.8L136 17.5l57.4 46.9z" clip-rule="evenodd"/><path fill="#CCC" fill-rule="evenodd" d="M0 157.8c1.1 38.9 29.1 39.4 41 39.8l-27.6-64.4L0 157.8z" clip-rule="evenodd"/><radialGradient id="m" cx="143.832" cy="118.502" r="50.358" gradientTransform="matrix(1 0 0 -1 0 197.89)" gradientUnits="userSpaceOnUse"><stop offset="0" style="stop-color:#aaa"/><stop offset="0" style="stop-color:#aaa"/><stop offset=".99" style="stop-color:#ccc"/><stop offset="1" style="stop-color:#ccc"/></radialGradient><path fill="url(#m)" fill-rule="evenodd" d="M120.7 69c17.6 10.8 53.1 32.6 53.9 33 1.1.6 15.3-23.9 18.5-37.8L120.7 69z" clip-rule="evenodd"/><radialGradient id="n" cx="74.092" cy="52.139" r="66.944" gradientTransform="matrix(1 0 0 -1 0 197.89)" gradientUnits="userSpaceOnUse"><stop offset="0" style="stop-color:#aaa"/><stop offset="0" style="stop-color:#aaa"/><stop offset=".99" style="stop-color:#ccc"/><stop offset="1" style="stop-color:#ccc"/></radialGradient><path fill="url(#n)" fill-rule="evenodd" d="m63.8 121.7 30.6 59c18.1-9.8 32.2-21.7 45.2-34.5l-75.8-24.5z" clip-rule="evenodd"/><linearGradient id="o" x1="26.67" x2="9.989" y1=".554" y2="57.148" gradientTransform="matrix(1 0 0 -1 0 197.89)" gradientUnits="userSpaceOnUse"><stop offset="0" style="stop-color:#ccc"/><stop offset="0" style="stop-color:#ccc"/><stop offset=".43" style="stop-color:#ccc"/><stop offset=".99" style="stop-color:#aaa"/><stop offset="1" style="stop-color:#aaa"/></linearGradient><path fill="url(#o)" fill-rule="evenodd" d="M13.4 133.2 9 184.8c8.2 11.2 19.4 12.1 31.2 11.3-8.5-21.3-25.5-63.8-26.8-62.9z" clip-rule="evenodd"/><linearGradient id="p" x1="154.641" x2="192.039" y1="188.092" y2="171.584" gradientTransform="matrix(1 0 0 -1 0 197.89)" gradientUnits="userSpaceOnUse"><stop offset="0" style="stop-color:#aaa"/><stop offset="0" style="stop-color:#aaa"/><stop offset=".44" style="stop-color:#ccc"/><stop offset=".99" style="stop-color:#ccc"/><stop offset="1" style="stop-color:#ccc"/></linearGradient><path fill="url(#p)" fill-rule="evenodd" d="m135.9 17.6 60.7 8.5C193.4 12.4 183.4 3.5 166.5.7l-30.6 16.9z" clip-rule="evenodd"/></svg>