<svg xmlns="http://www.w3.org/2000/svg" xml:space="preserve" style="enable-background:new 0 0 260 260" viewBox="0 0 260 260"><path d="M9.8 0h240.5c5.4 0 9.8 4.4 9.8 9.8v240.5c0 5.4-4.4 9.8-9.8 9.8H9.8c-5.4 0-9.8-4.4-9.8-9.8V9.8C0 4.4 4.4 0 9.8 0z" style="fill:#1a1a1a"/><path d="M9.8 0h240.5c5.4 0 9.8 4.4 9.8 9.8v240.5c0 5.4-4.4 9.8-9.8 9.8H9.8c-5.4 0-9.8-4.4-9.8-9.8V9.8C0 4.4 4.4 0 9.8 0zm134.7 138.3V117H52v21.3h33v94.9h26.3v-94.9h33.2zm10.5 92.5c4.2 2.2 9.3 3.8 15 4.9 5.8 1.1 11.9 1.6 18.3 1.6 6.3 0 12.2-.6 17.8-1.8 5.6-1.2 10.6-3.1 14.8-5.9s7.6-6.3 10.1-10.7 3.7-9.9 3.7-16.3c0-4.7-.7-8.8-2.1-12.4-1.4-3.5-3.5-6.7-6.1-9.4s-5.9-5.2-9.6-7.4c-3.7-2.2-7.9-4.3-12.6-6.2-3.4-1.4-6.5-2.8-9.2-4.1-2.7-1.3-5-2.7-6.9-4.1-1.9-1.4-3.4-2.8-4.4-4.4-1-1.5-1.6-3.3-1.6-5.2 0-1.8.5-3.4 1.4-4.8.9-1.4 2.2-2.7 3.9-3.7 1.7-1 3.8-1.8 6.2-2.4 2.4-.6 5.2-.9 8.2-.9 2.2 0 4.5.2 6.9.5 2.4.3 4.9.8 7.3 1.5 2.4.7 4.8 1.5 7.1 2.6 2.3 1 4.4 2.2 6.4 3.6v-24.2c-4-1.5-8.3-2.6-13-3.4-4.7-.7-10.1-1.1-16.2-1.1-6.2 0-12.1.7-17.6 2-5.5 1.3-10.4 3.4-14.6 6.2s-7.5 6.4-10 10.7c-2.4 4.4-3.7 9.6-3.7 15.6 0 7.7 2.2 14.3 6.7 19.8s11.3 10.1 20.4 13.9c3.6 1.5 6.9 2.9 10 4.3 3.1 1.4 5.8 2.9 8 4.4 2.3 1.5 4 3.2 5.3 4.9s2 3.8 2 6.1c0 1.7-.4 3.2-1.2 4.7-.8 1.4-2.1 2.7-3.7 3.7-1.7 1.1-3.7 1.9-6.2 2.5-2.5.6-5.4.9-8.7.9-5.7 0-11.3-1-16.8-3s-10.7-4.9-15.4-8.9l.1 25.9z" style="fill:#e6e6e6"/></svg>