<?xml version="1.0" encoding="utf-8"?>
<!-- Generator: Adobe Illustrator 24.1.2, SVG Export Plug-In . SVG Version: 6.00 Build 0)  -->
<svg version="1.1"
	 id="svg3" xmlns:inkscape="http://www.inkscape.org/namespaces/inkscape" xmlns:sodipodi="http://sodipodi.sourceforge.net/DTD/sodipodi-0.dtd" xmlns:svg="http://www.w3.org/2000/svg"
	 xmlns="http://www.w3.org/2000/svg" xmlns:xlink="http://www.w3.org/1999/xlink" x="0px" y="0px" viewBox="0 0 128 128"
	 style="enable-background:new 0 0 128 128;" xml:space="preserve">
<style type="text/css">
	.st0{fill:#E6E6E6;}
	.st1{fill:#1A1A1A;}
</style>
<sodipodi:namedview  bordercolor="#000000" borderopacity="0.25" id="namedview3" inkscape:current-layer="svg3" inkscape:cx="63.924171" inkscape:cy="64" inkscape:deskcolor="#d1d1d1" inkscape:pagecheckerboard="0" inkscape:pageopacity="0.0" inkscape:showpageshadow="2" inkscape:window-height="1050" inkscape:window-maximized="1" inkscape:window-width="1908" inkscape:window-x="5" inkscape:window-y="23" inkscape:zoom="6.59375" pagecolor="#ffffff">
	</sodipodi:namedview>
<path id="path2" class="st0" d="M0,117.3V10.7C0,4.8,4.8,0,10.7,0h106.7c5.9,0,10.7,4.8,10.7,10.7v106.7c0,5.9-4.8,10.7-10.7,10.7
	H10.7C4.8,128,0,123.2,0,117.3z"/>
<path id="path3" class="st1" d="M49.8,93.1L32,32h13c1.8,0,3.3,1.2,3.8,2.9l13.7,47.3c0.1,0.3,0.3,0.5,0.6,0.5h1.7
	c0.3,0,0.6-0.2,0.6-0.5l13.7-47.3c0.5-1.7,2.1-2.9,3.8-2.9h13L78.2,93.1c-0.5,1.7-2.1,2.9-3.8,2.9H53.7C51.9,96,50.3,94.8,49.8,93.1
	z"/>
</svg>
