<svg xmlns="http://www.w3.org/2000/svg" xml:space="preserve" style="enable-background:new 0 0 3888.5 1117.7" viewBox="0 0 3888.5 1117.7"><path d="m493.9 0 493.9 279.4v558.9l-493.9 279.4L0 838.3V279.4L493.9 0z" style="fill:#fff"/><path d="m899.7 819-389.4 220.3V867.8l242.6-133.5L899.7 819zm26.6-24.1V334.3l-142.4 82.3v296.1l142.4 82.2zM86.7 819l389.4 220.3V867.8L233.3 734.3 86.7 819zM60 794.9V334.3l142.4 82.3v296.1L60 794.9zm16.7-490.5L476.1 78.5v165.8L220.2 385.1l-2 1.1-141.5-81.8zm832.9 0L510.3 78.5v165.8l255.9 140.6 2 1.1 141.4-81.6z" style="fill:#8ed6fb"/><path d="M476.1 828.7 236.6 697V436.2L476 574.4v254.3zm34.2 0 239.4-131.6V436.2L510.3 574.5v254.2zM252.8 406.1 493.2 274l240.3 132.1-240.3 138.8-240.4-138.8z" style="fill:#1c78c0"/><path d="M1486 735.5h105.3l107.3-357.6H1596l-63.6 253.7-67.8-253.7h-88.8l-68.4 253.7-62.9-253.7h-102.6l106.7 357.6h105.3l66.4-229.1 65.7 229.1zm218.1-177.8c0 107.3 73.1 186.7 188.1 186.7 89 0 136.8-53.3 150.5-78.6l-62.3-47.2c-10.2 15.1-38.3 43.8-86.9 43.8-52.7 0-91-34.2-93-82.1h251.8c.6-6.9.6-13.7.6-20.5 0-116.9-62.9-190.8-173.7-190.8-101.9 0-175.1 80.6-175.1 188.7zm99.2-39c4.1-41 32.8-72.5 77.3-72.5 43.1 0 74.5 28.7 76.6 72.5h-153.9zm285.3 216.8h89v-36.9c9.6 11.6 45.2 45.8 106.1 45.8 102.6 0 175.1-77.2 175.1-187.4 0-110.8-67-188-169.6-188-61.5 0-97.1 34.2-106.1 46.5V241.1h-94.3v494.4h-.2zm91.6-177.8c0-67 39.7-105.3 91.6-105.3 54.8 0 91.6 43.1 91.6 105.3 0 63.6-38.3 103.3-91.6 103.3-57.4 0-91.6-46.6-91.6-103.3zm315.2 305.7h94.3V698.5c8.9 11.6 44.4 45.8 106.1 45.8 102.6 0 169.6-77.2 169.6-188 0-109.4-72.5-187.4-175.1-187.4-60.9 0-96.5 34.2-106.1 46.5v-37.7h-89v485.6h.2zm91.7-307.7c0-56.8 34.2-103.3 91.6-103.3 53.3 0 91.6 39.7 91.6 103.3 0 62.3-36.9 105.3-91.6 105.3-51.9 0-91.6-38.3-91.6-105.3zm295.4 69.1c0 75.2 61.5 119.7 134 119.7 41.1 0 68.4-12.3 86.9-32.2l6.1 23.2h83.5V509.1c0-80-34.2-140.1-149.1-140.1-54.8 0-108.7 20.5-140.9 42.4l35.6 64.3c26.7-13.7 59.5-25.3 95.1-25.3 41.7 0 65 21.2 65 52.7v23.2c-13-8.9-41.1-19.8-77.3-19.8-83.5-.1-138.9 47.8-138.9 118.3zm94.4-2.9c0-29.4 25.3-49.9 61.5-49.9s62.3 18.5 62.3 49.9c0 30.1-26 49.3-61.5 49.3s-62.3-19.8-62.3-49.3zm445.3 39.1c-59.5 0-101.8-43.1-101.8-103.9 0-57.4 37.7-104.7 98.5-104.7 40.3 0 67.8 19.8 83.5 34.2l26.7-79.4c-23.2-17.7-60.2-38.3-112.8-38.3-108.7 0-190.2 80-190.2 188.8s79.4 186.7 190.8 186.7c51.9 0 91-21.8 111.4-38.3L3503 629c-15.9 12.9-44.6 32-80.8 32zm141.5 74.5h94.3V550.9l119.7 184.7h110.8l-135.4-195.7L3879 377.8h-106.1L3658 528.3V241.1h-94.3v494.4z" style="fill:#1a1c1c"/></svg>