<svg xmlns="http://www.w3.org/2000/svg" xml:space="preserve" viewBox="0 0 294.6 84.7"><path fill="#FFF" d="m37.4 0 37.4 21.2v42.4L37.4 84.7 0 63.5V21.2L37.4 0z"/><path fill="#E6E6E6" d="M68.2 62.1 38.7 78.8v-13l18.4-10.1 11.1 6.4zm2-1.9V25.3l-10.8 6.2V54l10.8 6.2zM6.6 62.1l29.5 16.7v-13L17.7 55.6 6.6 62.1zm-2.1-1.9V25.3l10.8 6.2V54L4.5 60.2zm1.3-37.1L36.1 5.9v12.6L16.7 29.2l-.2.1-10.7-6.2zm63.1 0L38.7 5.9v12.6l19.4 10.7.2.1 10.6-6.2z"/><path fill="#CCC" d="M36.1 62.8 18 52.8V33.1l18.1 10.5v19.2zm2.6 0 18.1-10V33.1L38.7 43.5v19.3zm-19.5-32 18.2-10 18.2 10-18.2 10.5-18.2-10.5z"/><path fill="#E6E6E6" d="M112.6 55.7h8l8.1-27.1h-7.8l-4.8 19.2-5.1-19.2h-6.7l-5.2 19.2-4.8-19.2h-7.8l8.1 27.1h8l5-17.4 5 17.4zm16.5-13.4c0 8.1 5.5 14.1 14.3 14.1 6.7 0 10.4-4 11.4-6l-4.7-3.6c-.8 1.1-2.9 3.3-6.6 3.3-4 0-6.9-2.6-7-6.2h19.1v-1.6c0-8.9-4.8-14.5-13.2-14.5-7.7.2-13.3 6.3-13.3 14.5zm7.5-3c.3-3.1 2.5-5.5 5.9-5.5 3.3 0 5.6 2.2 5.8 5.5h-11.7zm21.7 16.4h6.7v-2.8c.7.9 3.4 3.5 8 3.5 7.8 0 13.3-5.8 13.3-14.2 0-8.4-5.1-14.2-12.9-14.2-4.7 0-7.4 2.6-8 3.5V18.3h-7.1v37.4zm6.9-13.4c0-5.1 3-8 6.9-8 4.2 0 6.9 3.3 6.9 8 0 4.8-2.9 7.8-6.9 7.8-4.3 0-6.9-3.5-6.9-7.8zm23.9 23.1h7.1V52.9c.7.9 3.4 3.5 8 3.5 7.8 0 12.9-5.8 12.9-14.2 0-8.3-5.5-14.2-13.3-14.2-4.6 0-7.3 2.6-8 3.5v-2.9h-6.7v36.8zm6.9-23.3c0-4.3 2.6-7.8 6.9-7.8 4 0 6.9 3 6.9 7.8 0 4.7-2.8 8-6.9 8-3.9 0-6.9-2.9-6.9-8zm22.4 5.2c0 5.7 4.7 9.1 10.2 9.1 3.1 0 5.2-.9 6.6-2.4l.5 1.8h6.3V38.6c0-6.1-2.6-10.6-11.3-10.6-4.2 0-8.2 1.6-10.7 3.2l2.7 4.9c2-1 4.5-1.9 7.2-1.9 3.2 0 4.9 1.6 4.9 4V40c-1-.7-3.1-1.5-5.9-1.5-6.3-.1-10.5 3.5-10.5 8.8zm7.2-.2c0-2.2 1.9-3.8 4.7-3.8 2.7 0 4.7 1.4 4.7 3.8 0 2.3-2 3.7-4.7 3.7-2.7.1-4.7-1.4-4.7-3.7zm33.7 3c-4.5 0-7.7-3.3-7.7-7.9 0-4.3 2.9-7.9 7.5-7.9 3.1 0 5.1 1.5 6.3 2.6l2-6c-1.8-1.3-4.6-2.9-8.5-2.9-8.2 0-14.4 6.1-14.4 14.3s6 14.1 14.5 14.1c3.9 0 6.9-1.7 8.4-2.9l-1.9-5.8c-1.3.9-3.4 2.4-6.2 2.4zm10.7 5.6h7.1v-14l9.1 14h8.4l-10.3-14.8 9.5-12.3h-8L277.2 40V18.3H270v37.4z"/></svg>